Coordinates
version=1
nRows=7
nColumns=63
inDegrees=yes

Units are S.I. units (second, meters, Newtons, ...)
If the header above contains a line with 'inDegrees', this indicates whether rotational values are in degrees (yes) or radians (no).

endheader
time	pelvis_tilt	pelvis_list	pelvis_rotation	pelvis_tx	pelvis_ty	pelvis_tz	hip_flexion_r	hip_adduction_r	hip_rotation_r	knee_angle_r	knee_angle_r_beta	ankle_angle_r	subtalar_angle_r	mtp_angle_r	hip_flexion_l	hip_adduction_l	hip_rotation_l	knee_angle_l	knee_angle_l_beta	ankle_angle_l	subtalar_angle_l	mtp_angle_l	L5_S1_Flex_Ext	L5_S1_Lat_Bending	L5_S1_axial_rotation	L4_L5_Flex_Ext	L4_L5_Lat_Bending	L4_L5_axial_rotation	L3_L4_Flex_Ext	L3_L4_Lat_Bending	L3_L4_axial_rotation	L2_L3_Flex_Ext	L2_L3_Lat_Bending	L2_L3_axial_rotation	L1_L2_Flex_Ext	L1_L2_Lat_Bending	L1_L2_axial_rotation	L1_T12_Flex_Ext	L1_T12_Lat_Bending	L1_T12_axial_rotation	Abs_r3	Abs_r2	Abs_r1	Abs_t1	Abs_t2	neck_flexion	neck_bending	neck_rotation	arm_flex_r	arm_add_r	arm_rot_r	elbow_flex_r	pro_sup_r	wrist_flex_r	wrist_dev_r	arm_flex_l	arm_add_l	arm_rot_l	elbow_flex_l	pro_sup_l	wrist_flex_l	wrist_dev_l
      0.00000000	      0.74011442	     -5.08043699	     96.33085350	      0.20304040	      1.00285516	      0.04427720	     -3.77231265	      2.05782650	    -19.74885578	      9.28300480	      0.16201900	     32.73956519	     15.63164983	      0.00000000	     -4.37302719	     -0.50910243	      4.01755678	      5.21340294	      0.09099105	     30.23136137	      0.97920078	      0.00000000	      0.24489943	      0.05699114	     -0.44252914	      0.45480274	      0.07579822	     -0.47018721	      0.40234528	      0.13856827	     -0.47018721	      0.27989556	      0.13856827	     -0.38721300	      0.22741361	      0.11621634	     -0.35955493	      0.13993554	      0.08827928	     -0.33189686	      1.74929216	      0.64469522	     -2.46121433	      0.00000000	      0.00000000	     27.00535870	      7.99728592	      1.47015007	     17.70736840	    -18.86148724	     63.84518564	     64.42856343	     34.27264636	     -3.54611216	    -11.73215920	     22.95672019	    -11.26603908	     56.39677902	     62.38494145	     82.95238622	     -8.35397397	     -1.21413605
      0.01754386	      0.67746895	     -5.12085642	     95.55137104	      0.20378567	      1.00319679	      0.04486880	     -3.66408176	      1.83256275	    -19.69914605	      9.32043330	      0.16267225	     32.16103044	     16.17109298	      0.00000000	     -4.31297295	     -0.36397151	      2.91315773	      5.37154773	      0.09375119	     29.45552414	     -0.07902955	      0.00000000	      0.25563279	      0.07419868	     -0.50609111	      0.47473566	      0.09868425	     -0.53772180	      0.41997912	      0.18040668	     -0.53772180	      0.29216272	      0.18040668	     -0.44282972	      0.23738061	      0.15130596	     -0.41119903	      0.14606858	      0.11493376	     -0.37956833	      1.82595948	      0.83935036	     -2.81472692	      0.00000000	      0.00000000	     26.62566302	      8.70870349	      3.93074791	     19.41760399	    -18.09980235	     64.11476256	     62.42267350	     42.94817613	     -4.42600791	    -11.17845920	     22.03779729	    -11.58346312	     54.33103373	     62.03791659	     84.13563362	     -5.55051671	     -1.03811833
      0.03508772	      0.53567071	     -5.21438323	     94.87929192	      0.20477422	      1.00346256	      0.04521583	     -3.51000425	      1.62086648	    -19.17876865	      9.30948918	      0.16248124	     31.74517147	     16.09805683	      0.00000000	     -4.25554723	     -0.16862089	      1.99729701	      5.43957923	      0.09493857	     28.84929276	     -0.69277847	      0.00000000	      0.26383644	      0.06127854	     -0.45584805	      0.48997065	      0.08150046	     -0.48433855	      0.43345688	      0.14899264	     -0.48433855	      0.30153867	      0.14899264	     -0.39886704	      0.24499852	      0.12495920	     -0.37037654	      0.15075614	      0.09492046	     -0.34188604	      1.88455730	      0.69319511	     -2.53529009	      0.00000000	      0.00000000	     26.59083070	      8.92973682	      4.40967782	     19.46004851	    -17.22183522	     60.48161087	     60.55965276	     57.53879533	     -0.47634645	     -7.58890327	     21.82947468	    -11.86883408	     53.70742748	     61.77193978	     84.69673508	     -3.40561904	     -0.73608196
      0.05263158	      0.52545874	     -5.32568950	     94.26771310	      0.20562914	      1.00364173	      0.04535569	     -3.33003660	      1.55440311	    -18.61149440	      9.29752140	      0.16227236	     31.55945248	     16.13546101	      0.00000000	     -4.08492838	     -0.20667101	     -0.58512034	      5.68496641	      0.09922138	     29.01940753	      1.35315954	      0.00000000	      0.27115294	      0.06356066	     -0.39640071	      0.50355812	      0.08453568	     -0.42117575	      0.44547716	      0.15454139	     -0.42117575	      0.30990069	      0.15454139	     -0.34685062	      0.25179262	      0.12961290	     -0.32207557	      0.15493679	      0.09845546	     -0.29730053	      1.93681832	      0.71901091	     -2.20466181	      0.00000000	      0.00000000	     26.58662511	      8.72614137	      4.60039135	     19.66689839	    -16.71599588	     58.78795013	     59.86348093	     65.13959822	      1.89431534	     -5.73704331	     21.78601546	    -12.18420834	     53.68959481	     61.69507295	     84.34215745	     -2.20722802	     -0.70754712
      0.07017544	      0.55526872	     -5.41077323	     93.69016737	      0.20643567	      1.00381814	      0.04525078	     -3.22716243	      1.60037494	    -17.46820237	      9.17512345	      0.16013611	     31.44767462	     15.60394932	      0.00000000	     -3.97699988	     -0.29559943	     -3.06437853	      5.89555572	      0.10289686	     29.32290353	      3.58661016	      0.00000000	      0.27055699	      0.06830487	     -0.33376599	      0.50245139	      0.09084547	     -0.35462637	      0.44449808	      0.16607645	     -0.35462637	      0.30921959	      0.16607645	     -0.29204524	      0.25123922	      0.13928728	     -0.27118487	      0.15459627	      0.10580424	     -0.25032449	      1.93256154	      0.77267830	     -1.85630631	      0.00000000	      0.00000000	     26.68323300	      8.49142103	      4.65722785	     19.96300641	    -16.49704275	     58.63885577	     59.72210395	     67.92468255	      2.82175440	     -4.88750347	     21.57986971	    -12.43197136	     53.20345899	     61.87885243	     84.47824400	     -0.67785063	     -0.10195204
      0.08771930	      0.57533438	     -5.49584516	     93.58772156	      0.20668152	      1.00398234	      0.04499495	     -3.16799707	      1.61465195	    -17.50028193	      9.08926840	      0.15863766	     31.54524043	     15.95552278	      0.00000000	     -3.94836891	     -0.29274191	     -3.03534484	      5.86026422	      0.10228091	     29.14007914	      3.27197807	      0.00000000	      0.27131465	      0.06310225	     -0.30094816	      0.50385843	      0.08392600	     -0.31975742	      0.44574283	      0.15342682	     -0.31975742	      0.31008551	      0.15342682	     -0.26332964	      0.25194278	      0.12867812	     -0.24452038	      0.15502919	      0.09774539	     -0.22571112	      1.93797339	      0.71382532	     -1.67378339	      0.00000000	      0.00000000	     26.84764127	      8.03174729	      3.91654696	     19.69246051	    -16.34265782	     57.95568328	     59.84095120	     68.85084657	      4.27668426	     -3.93818537	     21.78512080	    -12.69589537	     53.70175978	     61.99426950	     84.11165912	     -0.19799650	     -0.01024840
      0.10526316	      0.62935182	     -5.53854289	     93.32757058	      0.20714380	      1.00414156	      0.04467082	     -3.14236522	      1.69073331	    -16.93789126	      8.99766999	      0.15703897	     31.60900193	     15.80371389	      0.00000000	     -3.94571055	     -0.38119560	     -4.19401121	      5.89875568	      0.10295271	     29.34849672	      4.44684512	      0.00000000	      0.26876433	      0.06516381	     -0.25674303	      0.49912224	      0.08666787	     -0.27278947	      0.44155292	      0.15843929	     -0.27278947	      0.30717075	      0.15843929	     -0.22465015	      0.24957456	      0.13288204	     -0.20860371	      0.15357194	      0.10093874	     -0.19255727	      1.91975674	      0.73714605	     -1.42792771	      0.00000000	      0.00000000	     26.94196594	      7.72183251	      3.52354392	     19.74320399	    -16.35590109	     58.68870415	     60.12996437	     65.67912565	      4.28491996	     -3.33657424	     21.81501591	    -12.91629399	     53.69672825	     62.28547225	     84.63606168	     -0.19684094	      0.45554135
